<svg fill="none" height="40" viewBox="0 0 250 40" width="250" xmlns="http://www.w3.org/2000/svg"><path d="m0 0h250v40h-250z" fill="#f00"/><path d="m36.3614 10-4.17 21h-4.56l2.46-12.48-8.01 10.26h-2.16l-4.32-10.38-2.52 12.6h-4.56003l4.20003-21h3.96l5.25 13.08 10.26-13.08zm20.1023 4.86-3.21 16.14h-4.44l.3-1.59c-1.34 1.22-2.99 1.83-4.95 1.83-1.26 0-2.42-.29-3.48-.87s-1.91-1.41-2.55-2.49c-.62-1.1-.93-2.39-.93-3.87 0-1.78.39-3.38 1.17-4.8.8-1.44 1.88-2.56 3.24-3.36 1.36-.82 2.86-1.23 4.5-1.23 2.48 0 4.23.81 5.25 2.43l.42-2.19zm-10.86 12.51c.92 0 1.74-.22 2.46-.66.72-.46 1.28-1.09 1.68-1.89s.6-1.72.6-2.76c0-1.1-.33-1.97-.99-2.61-.64-.64-1.54-.96-2.7-.96-.92 0-1.74.23-2.46.69-.72.44-1.28 1.06-1.68 1.86s-.6 1.72-.6 2.76c0 1.1.32 1.97.96 2.61.66.64 1.57.96 2.73.96zm31.4529-12.51-3.21 16.14h-4.44l.33-1.74c-.7.66-1.5 1.16-2.4 1.5-.9.32-1.85.48-2.85.48-1.76 0-3.17-.48-4.23-1.44-1.04-.96-1.56-2.31-1.56-4.05 0-.66.07-1.31.21-1.95l1.77-8.94h4.68l-1.71 8.64c-.08.38-.12.77-.12 1.17 0 1.68.9 2.52 2.7 2.52 1.18 0 2.15-.34 2.91-1.02.78-.7 1.31-1.74 1.59-3.12l1.65-8.19zm8.3857 1.92c.7-.76 1.54-1.31 2.52-1.65 1-.34 2.17-.51 3.51-.51l-.84 4.32c-.56-.04-.92-.06-1.08-.06-1.42 0-2.56.35-3.42 1.05-.84.7-1.41 1.79-1.71 3.27l-1.56 7.8h-4.68l3.21-16.14h4.44zm13.8263 14.46c-1.62 0-3.05-.3-4.29-.9-1.22-.6-2.17-1.44-2.85-2.52-.66-1.1-.99-2.37-.99-3.81 0-1.78.42-3.38 1.26-4.8s2-2.54 3.48-3.36 3.15-1.23 5.0104-1.23c1.64 0 3.07.3 4.29.9s2.16 1.45 2.82 2.55c.68 1.08 1.02 2.34 1.02 3.78 0 1.78-.42 3.38-1.26 4.8-.82 1.42-1.98 2.54-3.48 3.36-1.48.82-3.15 1.23-5.0104 1.23zm.3-3.87c.9004 0 1.7104-.22 2.4304-.66.72-.46 1.28-1.09 1.68-1.89s.6-1.72.6-2.76c0-1.1-.32-1.97-.96-2.61s-1.54-.96-2.7-.96c-.9204 0-1.7404.23-2.4604.69-.72.44-1.28 1.06-1.68 1.86s-.6 1.72-.6 2.76c0 1.1.32 1.97.96 2.61.66.64 1.57.96 2.73.96zm31.7484-18.63-4.44 22.26h-4.44l.33-1.62c-1.36 1.24-3.01 1.86-4.95 1.86-1.26 0-2.42-.29-3.48-.87s-1.91-1.41-2.55-2.49c-.62-1.1-.93-2.39-.93-3.87 0-1.78.39-3.38 1.17-4.8.8-1.44 1.88-2.56 3.24-3.36 1.36-.82 2.86-1.23 4.5-1.23 1.18 0 2.21.2 3.09.6.9.4 1.61.99 2.13 1.77l1.65-8.25zm-12.06 18.63c.92 0 1.74-.22 2.46-.66.72-.46 1.28-1.09 1.68-1.89s.6-1.72.6-2.76c0-1.1-.33-1.97-.99-2.61-.64-.64-1.54-.96-2.7-.96-.92 0-1.74.23-2.46.69-.72.44-1.28 1.06-1.68 1.86s-.6 1.72-.6 2.76c0 1.1.32 1.97.96 2.61.66.64 1.57.96 2.73.96zm31.572-12.51-3.21 16.14h-4.44l.3-1.59c-1.34 1.22-2.99 1.83-4.95 1.83-1.26 0-2.42-.29-3.48-.87s-1.91-1.41-2.55-2.49c-.62-1.1-.93-2.39-.93-3.87 0-1.78.39-3.38 1.17-4.8.8-1.44 1.88-2.56 3.24-3.36 1.36-.82 2.86-1.23 4.5-1.23 2.48 0 4.23.81 5.25 2.43l.42-2.19zm-10.86 12.51c.92 0 1.74-.22 2.46-.66.72-.46 1.28-1.09 1.68-1.89s.6-1.72.6-2.76c0-1.1-.33-1.97-.99-2.61-.64-.64-1.54-.96-2.7-.96-.92 0-1.74.23-2.46.69-.72.44-1.28 1.06-1.68 1.86s-.6 1.72-.6 2.76c0 1.1.32 1.97.96 2.61.66.64 1.57.96 2.73.96zm24.253-12.75c1.26 0 2.42.29 3.48.87 1.08.58 1.93 1.42 2.55 2.52.64 1.08.96 2.36.96 3.84 0 1.78-.4 3.39-1.2 4.83-.78 1.42-1.85 2.54-3.21 3.36-1.36.8-2.87 1.2-4.53 1.2-2.46 0-4.2-.8-5.22-2.4l-1.59 7.98h-4.68l4.38-21.96h4.44l-.33 1.59c1.34-1.22 2.99-1.83 4.95-1.83zm-2.49 12.75c.92 0 1.74-.22 2.46-.66.72-.46 1.28-1.09 1.68-1.89s.6-1.72.6-2.76c0-1.1-.33-1.97-.99-2.61-.64-.64-1.54-.96-2.7-.96-.9 0-1.71.23-2.43.69-.72.44-1.28 1.06-1.68 1.86s-.6 1.72-.6 2.76c0 1.1.32 1.97.96 2.61s1.54.96 2.7.96zm18.193-10.59c.7-.76 1.54-1.31 2.52-1.65 1-.34 2.17-.51 3.51-.51l-.84 4.32c-.56-.04-.92-.06-1.08-.06-1.42 0-2.56.35-3.42 1.05-.84.7-1.41 1.79-1.71 3.27l-1.56 7.8h-4.68l3.21-16.14h4.44zm13.826 14.46c-1.62 0-3.05-.3-4.29-.9-1.22-.6-2.17-1.44-2.85-2.52-.66-1.1-.99-2.37-.99-3.81 0-1.78.42-3.38 1.26-4.8s2-2.54 3.48-3.36 3.15-1.23 5.01-1.23c1.64 0 3.07.3 4.29.9s2.16 1.45 2.82 2.55c.68 1.08 1.02 2.34 1.02 3.78 0 1.78-.42 3.38-1.26 4.8-.82 1.42-1.98 2.54-3.48 3.36-1.48.82-3.15 1.23-5.01 1.23zm.3-3.87c.9 0 1.71-.22 2.43-.66.72-.46 1.28-1.09 1.68-1.89s.6-1.72.6-2.76c0-1.1-.32-1.97-.96-2.61s-1.54-.96-2.7-.96c-.92 0-1.74.23-2.46.69-.72.44-1.28 1.06-1.68 1.86s-.6 1.72-.6 2.76c0 1.1.32 1.97.96 2.61.66.64 1.57.96 2.73.96zm17.259-2.07c-.04.16-.06.38-.06.66 0 1.04.57 1.56 1.71 1.56.62 0 1.25-.19 1.89-.57l.69 3.33c-1.04.64-2.38.96-4.02.96-1.52 0-2.74-.4-3.66-1.2s-1.38-1.9-1.38-3.3c0-.4.05-.87.15-1.41l1.29-6.51h-2.49l.72-3.6h2.49l.78-3.93h4.68l-.78 3.93h4.02l-.72 3.6h-4.02zm9.887-10.44h4.65l-3.21 16.14h-4.65zm3.12-2.25c-.8 0-1.46-.23-1.98-.69-.5-.48-.75-1.06-.75-1.74 0-.8.28-1.46.84-1.98.58-.54 1.33-.81 2.25-.81.82 0 1.48.23 1.98.69.52.44.78.99.78 1.65 0 .86-.29 1.56-.87 2.1-.58.52-1.33.78-2.25.78zm8.544 18.63c-1.4 0-2.73-.15-3.99-.45-1.24-.32-2.21-.73-2.91-1.23l1.8-3.39c.7.46 1.55.83 2.55 1.11 1.02.28 2.04.42 3.06.42 1.06 0 1.85-.13 2.37-.39.52-.28.78-.67.78-1.17 0-.4-.23-.69-.69-.87s-1.2-.37-2.22-.57c-1.16-.22-2.12-.46-2.88-.72-.74-.26-1.39-.68-1.95-1.26-.54-.6-.81-1.41-.81-2.43 0-1.78.74-3.17 2.22-4.17 1.5-1 3.46-1.5 5.88-1.5 1.12 0 2.21.12 3.27.36s1.96.57 2.7.99l-1.68 3.42c-1.32-.82-2.91-1.23-4.77-1.23-1.02 0-1.8.15-2.34.45-.52.3-.78.68-.78 1.14 0 .42.23.73.69.93.46.18 1.23.38 2.31.6 1.14.22 2.07.46 2.79.72.74.24 1.38.65 1.92 1.23s.81 1.37.81 2.37c0 1.8-.76 3.19-2.28 4.17-1.5.98-3.45 1.47-5.85 1.47z" fill="#fff"/></svg>