<svg fill="none" height="40" viewBox="0 0 40 40" width="40" xmlns="http://www.w3.org/2000/svg"><path d="m0 0h40v40h-40z" fill="#f00"/><path d="m21.3275 13-2.78 14h-3.04l1.64-8.32-5.34 6.84h-1.44l-2.88-6.92-1.68 8.4h-3.04l2.8-14h2.64l3.5 8.72 6.84-8.72zm3.3416 0h5.86c1.4266 0 2.6533.24 3.68.72 1.04.4667 1.8333 1.14 2.38 2.02.56.88.84 1.9133.84 3.1 0 1.6267-.3667 3.06-1.1 4.3-.7334 1.2267-1.76 2.18-3.08 2.86-1.3067.6667-2.82 1-4.54 1h-6.84zm4.14 11.34c1.0933 0 2.04-.2267 2.84-.68.8133-.4667 1.4333-1.1 1.86-1.9.4266-.8133.64-1.7267.64-2.74 0-1.0533-.34-1.8733-1.02-2.46-.68-.6-1.6667-.9-2.96-.9h-2.78l-1.74 8.68z" fill="#fff"/></svg>